# Blender v2.79 (sub 0) OBJ File: 'proppellor.blend'
# www.blender.org
mtllib proppellor.mtl
o Plane
v 0.062650 0.024111 0.281802
v 0.174266 0.033476 0.225628
v -0.330198 0.105353 -0.485231
v -0.218583 0.114718 -0.541405
v -0.500907 0.028268 -0.012598
v -0.443234 0.029346 0.098641
v 0.265295 0.090879 -0.410447
v 0.322967 0.091956 -0.299209
v -0.095407 0.134232 -0.157171
v -0.155400 0.088402 -0.200757
v -0.072493 0.088402 -0.227696
v -0.021253 0.088402 -0.157171
v -0.072493 0.088402 -0.086645
v -0.155400 0.088402 -0.113584
v -0.118322 0.014247 -0.227696
v -0.035415 0.014247 -0.200757
v -0.035415 0.014247 -0.113584
v -0.118322 0.014247 -0.086645
v -0.169562 0.014247 -0.157171
v -0.095407 -0.031583 -0.157171
v -0.081939 0.121850 -0.198624
v -0.130670 0.121850 -0.182790
v -0.117201 0.094912 -0.224244
v -0.165932 0.094912 -0.157171
v -0.130670 0.121850 -0.131551
v -0.051820 0.121850 -0.157171
v -0.038351 0.094912 -0.198624
v -0.081939 0.121850 -0.115717
v -0.038351 0.094912 -0.115717
v -0.117201 0.094912 -0.090097
v -0.174257 0.051324 -0.182790
v -0.174257 0.051324 -0.131551
v -0.095407 0.051324 -0.240078
v -0.144139 0.051324 -0.224244
v -0.016558 0.051324 -0.182790
v -0.046676 0.051324 -0.224244
v -0.046676 0.051324 -0.090097
v -0.016558 0.051324 -0.131551
v -0.144139 0.051324 -0.090097
v -0.095407 0.051324 -0.074263
v -0.152463 0.007737 -0.198624
v -0.073614 0.007737 -0.224244
v -0.024882 0.007737 -0.157171
v -0.073614 0.007737 -0.090097
v -0.152463 0.007737 -0.115717
v -0.108876 -0.019201 -0.198624
v -0.138994 -0.019201 -0.157171
v -0.060145 -0.019201 -0.182790
v -0.060145 -0.019201 -0.131551
v -0.108876 -0.019201 -0.115717
vt 0.000063 0.000000
vt 0.469989 0.144512
vt 0.000000 0.144513
vt 0.470052 0.998206
vt 0.537798 0.001794
vt 0.537798 1.000000
vt 0.586305 0.101414
vt 0.607775 0.077444
vt 0.600925 0.135667
vt 0.621772 0.058482
vt 0.605069 0.025624
vt 0.573138 0.145066
vt 0.562816 0.092650
vt 0.584222 0.050859
vt 0.745671 0.120775
vt 0.750000 0.153424
vt 0.737319 0.152526
vt 0.750000 0.021658
vt 0.748195 0.068876
vt 0.738748 0.042012
vt 0.562845 0.173527
vt 0.587136 0.178055
vt 0.571674 0.188415
vt 0.545283 0.084352
vt 0.549026 0.135038
vt 0.537798 0.109414
vt 0.581702 0.013251
vt 0.560110 0.040830
vt 0.566054 0.009398
vt 0.736204 0.100272
vt 0.743981 0.000000
vt 0.709369 0.014843
vt 0.719541 0.000000
vt 0.715192 0.026289
vt 0.707471 0.103743
vt 0.714076 0.078543
vt 0.716621 0.136803
vt 0.593841 0.000000
vt 0.629255 0.104066
vt 0.632998 0.053380
vt 0.646786 0.095769
vt 0.665674 0.175167
vt 0.644081 0.147589
vt 0.668192 0.137561
vt 0.705745 0.129936
vt 0.689041 0.162794
vt 0.691745 0.110975
vt 0.694092 0.030879
vt 0.705745 0.077985
vt 0.684896 0.052751
vt 0.646818 0.014890
vt 0.671108 0.010362
vt 0.657109 0.043353
vt 0.670275 0.087006
vt 0.655649 0.000000
vt 0.683436 0.009398
vt 0.726068 0.109938
vt 0.727872 0.157156
vt 0.723543 0.058039
vt 0.727872 0.025390
vt 0.677815 0.188417
vt 0.650028 0.179019
vt 0.628622 0.137226
vt 0.621772 0.079002
vt 0.727872 0.125662
vt 0.632096 0.026586
vt 0.721853 0.178815
vt 0.544648 0.051190
vt 0.705745 0.053153
vt 0.548121 0.161830
vt 0.599461 0.179018
vt 0.610119 0.157538
vt 0.729599 0.075071
vt 0.741669 0.178815
vt 0.731497 0.163972
vt 0.621772 0.110433
vt 0.470052 0.000000
vt 0.470052 0.000000
vn -0.0242 0.9928 0.1175
vn -0.0682 0.9973 0.0257
vn 0.1024 -0.9435 0.3151
vn 0.7002 -0.6617 0.2680
vn -0.2680 -0.9435 0.1947
vn -0.2680 -0.9435 -0.1947
vn 0.1024 -0.9435 -0.3151
vn 0.9050 -0.3304 0.2680
vn 0.0247 -0.3304 0.9435
vn -0.8897 -0.3304 0.3151
vn -0.5746 -0.3304 -0.7488
vn 0.5346 -0.3304 -0.7779
vn 0.8026 -0.1256 0.5831
vn -0.3066 -0.1256 0.9435
vn -0.9921 -0.1256 0.0000
vn -0.3066 -0.1256 -0.9435
vn 0.8026 -0.1256 -0.5831
vn 0.4089 0.6617 0.6284
vn -0.4713 0.6617 0.5831
vn -0.7002 0.6617 -0.2680
vn 0.0385 0.6617 -0.7488
vn 0.7240 0.6617 -0.1947
vn 0.2680 0.9435 -0.1947
vn 0.4911 0.7947 -0.3568
vn 0.4089 0.6617 -0.6284
vn -0.1024 0.9435 -0.3151
vn -0.1876 0.7947 -0.5773
vn -0.4713 0.6617 -0.5831
vn -0.3313 0.9435 -0.0000
vn -0.6071 0.7947 -0.0000
vn -0.7002 0.6617 0.2680
vn -0.1024 0.9435 0.3151
vn -0.1876 0.7947 0.5773
vn 0.0385 0.6617 0.7488
vn 0.2680 0.9435 0.1947
vn 0.4911 0.7947 0.3568
vn 0.7240 0.6617 0.1947
vn 0.8897 0.3304 -0.3151
vn 0.7947 0.1876 -0.5773
vn 0.5746 0.3304 -0.7488
vn -0.0247 0.3304 -0.9435
vn -0.3035 0.1876 -0.9342
vn -0.5346 0.3304 -0.7779
vn -0.9050 0.3304 -0.2680
vn -0.9822 0.1876 0.0000
vn -0.9050 0.3304 0.2680
vn -0.5346 0.3304 0.7779
vn -0.3035 0.1876 0.9342
vn -0.0247 0.3304 0.9435
vn 0.5746 0.3304 0.7488
vn 0.7947 0.1876 0.5773
vn 0.8897 0.3304 0.3151
vn 0.3066 0.1256 -0.9435
vn 0.3035 -0.1876 -0.9342
vn 0.0247 -0.3304 -0.9435
vn -0.8026 0.1256 -0.5831
vn -0.7947 -0.1876 -0.5773
vn -0.8897 -0.3304 -0.3151
vn -0.8026 0.1256 0.5831
vn -0.7947 -0.1876 0.5773
vn -0.5746 -0.3304 0.7488
vn 0.3066 0.1256 0.9435
vn 0.3035 -0.1876 0.9342
vn 0.5346 -0.3304 0.7779
vn 0.9921 0.1256 -0.0000
vn 0.9822 -0.1876 0.0000
vn 0.9050 -0.3304 -0.2680
vn 0.4713 -0.6617 -0.5831
vn 0.1876 -0.7947 -0.5773
vn -0.0385 -0.6617 -0.7488
vn -0.4089 -0.6617 -0.6284
vn -0.4911 -0.7947 -0.3568
vn -0.7240 -0.6617 -0.1947
vn -0.7240 -0.6617 0.1947
vn -0.4911 -0.7947 0.3568
vn -0.4089 -0.6617 0.6284
vn 0.7002 -0.6617 -0.2680
vn 0.6071 -0.7947 0.0000
vn 0.3313 -0.9435 0.0000
vn -0.0385 -0.6617 0.7488
vn 0.1876 -0.7947 0.5773
vn 0.4713 -0.6617 0.5831
usemtl Material
s off
f 2/1/1 3/2/1 1/3/1
f 6/4/2 7/5/2 5/6/2
f 9/7/3 22/8/3 21/9/3
f 10/10/4 22/8/4 24/11/4
f 9/7/5 21/9/5 26/12/5
f 9/7/6 26/12/6 28/13/6
f 9/7/7 28/13/7 25/14/7
f 10/15/8 24/16/8 31/17/8
f 11/18/9 23/19/9 33/20/9
f 12/21/10 27/22/10 35/23/10
f 13/24/11 29/25/11 37/26/11
f 14/27/12 30/28/12 39/29/12
f 10/15/13 31/17/13 34/30/13
f 11/18/14 33/20/14 36/31/14
f 12/32/15 35/33/15 38/34/15
f 13/35/16 37/36/16 40/37/16
f 14/27/17 39/29/17 32/38/17
f 15/39/18 41/40/18 46/41/18
f 16/42/19 42/43/19 48/44/19
f 17/45/20 43/46/20 49/47/20
f 18/48/21 44/49/21 50/50/21
f 19/51/22 45/52/22 47/53/22
f 47/53/23 50/50/23 20/54/23
f 47/53/24 45/52/24 50/50/24
f 45/52/25 18/48/25 50/50/25
f 50/50/26 49/47/26 20/54/26
f 50/50/27 44/49/27 49/47/27
f 44/49/28 17/45/28 49/47/28
f 49/47/29 48/44/29 20/54/29
f 49/47/30 43/46/30 48/44/30
f 43/46/31 16/42/31 48/44/31
f 48/44/32 46/41/32 20/54/32
f 48/44/33 42/43/33 46/41/33
f 42/43/34 15/39/34 46/41/34
f 46/41/35 47/53/35 20/54/35
f 46/41/36 41/40/36 47/53/36
f 41/40/37 19/51/37 47/53/37
f 32/55/38 45/52/38 19/51/38
f 32/55/39 39/56/39 45/52/39
f 39/56/40 18/48/40 45/52/40
f 40/37/41 44/57/41 18/58/41
f 40/37/42 37/36/42 44/57/42
f 37/36/43 17/59/43 44/57/43
f 38/34/44 43/60/44 17/59/44
f 38/34/45 35/33/45 43/60/45
f 35/61/46 16/42/46 43/46/46
f 36/62/47 42/43/47 16/42/47
f 36/62/48 33/63/48 42/43/48
f 33/63/49 15/39/49 42/43/49
f 34/64/50 41/40/50 15/39/50
f 34/30/51 31/17/51 41/65/51
f 31/66/52 19/51/52 41/40/52
f 39/67/53 40/37/53 18/58/53
f 39/29/54 30/28/54 40/68/54
f 30/28/55 13/24/55 40/68/55
f 37/36/56 38/34/56 17/59/56
f 37/36/57 29/69/57 38/34/57
f 29/25/58 12/21/58 38/70/58
f 35/61/59 36/62/59 16/42/59
f 35/23/60 27/22/60 36/71/60
f 27/22/61 11/72/61 36/71/61
f 33/20/62 34/30/62 15/73/62
f 33/20/63 23/19/63 34/30/63
f 23/19/64 10/15/64 34/30/64
f 31/17/65 32/74/65 19/75/65
f 31/17/66 24/16/66 32/74/66
f 24/11/67 14/27/67 32/38/67
f 25/14/68 30/28/68 14/27/68
f 25/14/69 28/13/69 30/28/69
f 28/13/70 13/24/70 30/28/70
f 28/13/71 29/25/71 13/24/71
f 28/13/72 26/12/72 29/25/72
f 26/12/73 12/21/73 29/25/73
f 26/12/74 27/22/74 12/21/74
f 26/12/75 21/9/75 27/22/75
f 21/9/76 11/72/76 27/22/76
f 24/11/77 25/14/77 14/27/77
f 24/11/78 22/8/78 25/14/78
f 22/8/79 9/7/79 25/14/79
f 21/9/80 23/76/80 11/72/80
f 21/9/81 22/8/81 23/76/81
f 22/8/82 10/10/82 23/76/82
f 2/1/1 4/77/1 3/2/1
f 6/4/2 8/78/2 7/5/2
